<?xml version="1.0" standalone="no"?>
<!DOCTYPE svg PUBLIC "-//W3C//DTD SVG 20010904//EN"
 "http://www.w3.org/TR/2001/REC-SVG-20010904/DTD/svg10.dtd">
<svg version="1.0" xmlns="http://www.w3.org/2000/svg"
 width="512.000000pt" height="512.000000pt" viewBox="0 0 512.000000 512.000000"
 preserveAspectRatio="xMidYMid meet">
<metadata>
Created by potrace 1.11, written by Peter Selinger 2001-2013
</metadata>
<g transform="translate(0.000000,512.000000) scale(0.100000,-0.100000)"
fill="#000000" stroke="none">
<path d="M2574 3576 c-16 -18 -54 -60 -84 -93 -30 -33 -71 -77 -90 -99 -20
-21 -83 -91 -140 -154 -57 -63 -110 -122 -118 -130 -12 -14 -22 -13 -105 8
l-92 24 -630 2 c-346 1 -638 0 -647 -2 -43 -10 16 -230 92 -346 137 -207 366
-337 653 -370 l97 -11 -47 -52 c-27 -29 -83 -90 -125 -137 l-78 -84 54 -49
c152 -135 408 -206 630 -174 367 52 635 332 613 641 -9 114 -50 220 -120 309
-29 37 -33 48 -24 62 24 34 191 209 196 207 11 -5 201 -216 201 -223 0 -4 -16
-26 -36 -48 -46 -54 -92 -151 -108 -230 -76 -362 234 -698 669 -723 217 -13
448 64 583 196 l34 32 -34 36 c-18 20 -40 43 -48 52 -8 8 -50 54 -92 101 l-77
86 82 6 c305 24 585 196 705 433 33 64 61 155 67 221 6 53 5 61 -12 64 -10 3
-299 4 -643 3 -557 -1 -633 -3 -700 -19 -41 -10 -82 -21 -92 -26 -12 -7 -36
13 -111 94 -53 56 -104 112 -114 123 -36 42 -276 304 -278 304 -1 0 -15 -15
-31 -34z m-634 -746 c78 -21 200 -95 200 -121 0 -7 -136 -9 -372 -7 -424 4
-443 7 -569 90 l-64 43 50 5 c103 10 709 2 755 -10z m2127 6 c6 -6 -55 -50
-103 -75 -23 -11 -74 -29 -114 -40 -64 -18 -104 -20 -426 -21 -194 0 -354 2
-354 6 0 3 15 19 33 35 47 42 144 88 206 96 55 8 750 7 758 -1z m-1854 -323
c-1 -173 -167 -314 -379 -322 -34 -1 -64 1 -67 6 -3 4 62 82 145 173 82 91
175 194 206 229 l57 63 19 -43 c13 -29 19 -66 19 -106z m863 105 c16 -18 72
-80 124 -138 52 -58 118 -130 146 -160 63 -67 104 -116 104 -124 0 -3 -37 -4
-82 -2 -208 9 -364 143 -368 316 -2 69 18 140 39 140 4 0 21 -15 37 -32z"/>
</g>
</svg>
